<svg width="23" height="23" viewBox="0 0 23 23" fill="none" xmlns="http://www.w3.org/2000/svg">
<path d="M11.25 22.5C8.125 22.5 5.46875 21.4062 3.28125 19.2188C1.09375 17.0312 0 14.375 0 11.25C0 8.125 1.09375 5.46875 3.28125 3.28125C5.46875 1.09375 8.125 0 11.25 0C11.5417 0 11.8281 0.0104167 12.1094 0.03125C12.3906 0.0520833 12.6667 0.0833333 12.9375 0.125C12.0833 0.729167 11.401 1.51563 10.8906 2.48438C10.3802 3.45313 10.125 4.5 10.125 5.625C10.125 7.5 10.7813 9.09375 12.0938 10.4062C13.4063 11.7187 15 12.375 16.875 12.375C18.0208 12.375 19.0729 12.1198 20.0312 11.6094C20.9896 11.099 21.7708 10.4167 22.375 9.5625C22.4167 9.83333 22.4479 10.1094 22.4688 10.3906C22.4896 10.6719 22.5 10.9583 22.5 11.25C22.5 14.375 21.4062 17.0312 19.2188 19.2188C17.0312 21.4062 14.375 22.5 11.25 22.5ZM11.25 20C13.0833 20 14.7292 19.4948 16.1875 18.4844C17.6458 17.474 18.7083 16.1563 19.375 14.5312C18.9583 14.6354 18.5417 14.7187 18.125 14.7812C17.7083 14.8437 17.2917 14.875 16.875 14.875C14.3125 14.875 12.1302 13.974 10.3281 12.1719C8.52604 10.3698 7.625 8.1875 7.625 5.625C7.625 5.20833 7.65625 4.79167 7.71875 4.375C7.78125 3.95833 7.86458 3.54167 7.96875 3.125C6.34375 3.79167 5.02604 4.85417 4.01563 6.3125C3.00521 7.77083 2.5 9.41667 2.5 11.25C2.5 13.6667 3.35417 15.7292 5.0625 17.4375C6.77083 19.1458 8.83333 20 11.25 20Z" fill="#464646"/>
</svg>
