<svg width="23" height="21" viewBox="0 0 23 21" fill="none" xmlns="http://www.w3.org/2000/svg">
<path d="M20.75 21L12.875 13.65C12.25 14.1167 11.5312 14.4861 10.7187 14.7583C9.90625 15.0306 9.04167 15.1667 8.125 15.1667C5.85417 15.1667 3.93229 14.4326 2.35938 12.9646C0.786458 11.4965 0 9.70278 0 7.58333C0 5.46389 0.786458 3.67014 2.35938 2.20208C3.93229 0.734028 5.85417 0 8.125 0C10.3958 0 12.3177 0.734028 13.8906 2.20208C15.4635 3.67014 16.25 5.46389 16.25 7.58333C16.25 8.43889 16.1042 9.24583 15.8125 10.0042C15.5208 10.7625 15.125 11.4333 14.625 12.0167L22.5 19.3667L20.75 21ZM8.125 12.8333C9.6875 12.8333 11.0156 12.3229 12.1094 11.3021C13.2031 10.2812 13.75 9.04167 13.75 7.58333C13.75 6.125 13.2031 4.88542 12.1094 3.86458C11.0156 2.84375 9.6875 2.33333 8.125 2.33333C6.5625 2.33333 5.23438 2.84375 4.14062 3.86458C3.04688 4.88542 2.5 6.125 2.5 7.58333C2.5 9.04167 3.04688 10.2812 4.14062 11.3021C5.23438 12.3229 6.5625 12.8333 8.125 12.8333Z" fill="black"/>
</svg>
